<svg xmlns="http://www.w3.org/2000/svg" xmlns:xlink="http://www.w3.org/1999/xlink" viewBox="0 0 963.19 759.99"><defs><style>.cls-1{fill:url(#linear-gradient);}.cls-2{fill:url(#linear-gradient-2);}.cls-3{fill:#5f3712;}.cls-3,.cls-30,.cls-5{stroke:#5f3b17;}.cls-13,.cls-17,.cls-3,.cls-30,.cls-5{stroke-miterlimit:10;}.cls-4{fill:#fff;}.cls-30,.cls-5{fill:#5f3814;}.cls-6{fill:#a52326;}.cls-7{fill:#603912;}.cls-8{fill:#c5da32;}.cls-9{fill:#046a3d;}.cls-10{fill:#eda218;}.cls-11{fill:#c3da38;}.cls-12{fill:#036944;}.cls-13{fill:#f1a411;}.cls-13,.cls-17{stroke:#fff;}.cls-14{fill:#eda014;}.cls-15{fill:#c7d536;}.cls-16{fill:#eda31a;}.cls-17{fill:#046c42;}.cls-18{fill:#eea311;}.cls-19{fill:#efa21a;}.cls-20{fill:#03693f;}.cls-21{fill:#f39f12;}.cls-22{fill:#006c42;}.cls-23{fill:#c7d938;}.cls-24{fill:#c4d835;}.cls-25{fill:#046a46;}.cls-26{fill:#f19f1b;}.cls-27{fill:#c5d632;}.cls-28{fill:#f9a30b;}.cls-29{fill:#046c3f;}.cls-30{font-size:54.84px;font-family:SegoeUI-Light, Segoe UI;font-weight:300;letter-spacing:-0.01em;}</style><linearGradient id="linear-gradient" x1="32.51" y1="-2511.31" x2="223.99" y2="-2511.31" gradientTransform="translate(512.8 -2403.55) rotate(180)" gradientUnits="userSpaceOnUse"><stop offset="0" stop-color="#e26147"/><stop offset="0.42" stop-color="#f9a237"/><stop offset="0.48" stop-color="#f9a237"/><stop offset="0.69" stop-color="#fbb92d"/><stop offset="1" stop-color="#ffe01b"/></linearGradient><linearGradient id="linear-gradient-2" x1="-13.08" y1="-3060.92" x2="233.16" y2="-3060.92" xlink:href="#linear-gradient"/></defs><g id="Sun"><ellipse id="UpperSun" class="cls-1" cx="384.55" cy="107.76" rx="95.74" ry="96.63"/><ellipse id="UpperSun-2" data-name="UpperSun" class="cls-2" cx="402.76" cy="657.37" rx="123.12" ry="101.7"/></g><g id="SantaSlot"><polygon id="LowerChim" class="cls-3" points="204.85 114.38 238.81 114.38 238.81 159.83 204.85 188.94 204.85 114.38"/><polygon id="UpperChim" class="cls-3" points="222.99 703.56 257 703.56 257 680.32 222.99 665.1 222.99 703.56"/></g><g id="Walls"><polygon id="Walls-2" data-name="Walls" class="cls-4" points="634.75 345.37 634.75 128.24 526.11 30.71 417.77 134.78 417.77 197.82 483.89 253 438.21 275.01 438.21 253.74 301.68 132.3 164.16 262.2 164.07 278.76 160.42 277.28 160.42 370.62 178.65 566.42 178.65 618 182.15 617.18 181.98 625.99 319.55 694.11 455.45 630.67 455.45 618.66 503.68 630.56 436.17 660.24 436.17 693.43 544.71 746.86 653.18 695.37 653.18 589.38 634.75 345.37"/></g><g id="Windows"><polygon class="cls-5" points="266.04 236.66 293.91 236.66 293.91 269.87 266.32 269.87 266.04 236.66"/><rect class="cls-5" x="298.29" y="236.66" width="31.86" height="33.21"/><rect class="cls-5" x="298.29" y="273.04" width="31.86" height="31.34"/><rect class="cls-5" x="266.04" y="273.04" width="27.87" height="31.34"/><polygon class="cls-5" points="460.75 171.71 484.14 171.71 484.14 143.55 460.51 143.55 460.75 171.71"/><rect class="cls-5" x="487" y="143.55" width="25.22" height="28.16"/><rect class="cls-5" x="487" y="174.51" width="25.22" height="23.31"/><rect class="cls-5" x="460.51" y="174.51" width="23.63" height="23.31"/><polygon class="cls-5" points="266.71 625.42 294.65 625.42 294.65 609.99 266.41 609.99 266.71 625.42"/><rect class="cls-5" x="297.15" y="609.99" width="33.25" height="15.43"/><rect class="cls-5" x="297.15" y="627.61" width="33.25" height="13.49"/><rect class="cls-5" x="266.1" y="627.61" width="28.55" height="13.49"/><polygon class="cls-5" points="460.6 673.81 483.9 673.81 483.9 662.75 460.35 662.75 460.6 673.81"/><rect class="cls-5" x="486.23" y="662.75" width="26.04" height="11.06"/><rect class="cls-5" x="486.23" y="675.87" width="26.04" height="8.81"/><rect class="cls-5" x="460.35" y="675.87" width="23.88" height="8.81"/></g><g id="Roofs"><polygon id="LowerLeft" class="cls-6" points="140.35 626.58 182.15 617.18 181.98 625.99 319.55 694.11 455.45 630.67 455.45 618.66 503.68 630.56 322.02 710.42 140.35 626.58"/><polygon id="LowerRight" class="cls-6" points="436.13 684.68 436.13 693.43 544.71 746.86 673.46 685.75 690.34 697.07 545.53 759.99 397.72 692.4 436.13 684.68"/><polygon id="UpperLeft" class="cls-6" points="164.16 262.2 301.68 132.3 438.21 253.74 438.21 275.01 483.89 253 303.8 102.01 122.67 262 164.07 278.76 164.16 262.2"/><path id="UpperRight" class="cls-6" d="M380.86,134.78c.19.07,36.91,16.71,36.91,16.71V134.78L526.11,30.71,627.88,122l2.51-28.85L527.71,6.72Z"/></g><g id="Trees"><path id="UpperTree" class="cls-7" d="M676.25,350.54c18.15-57.17-6.44-124.87-41.85-172.7,1.72-.29,12.65,12.07,16.11,17.08,47.2,54.79,55.41-27.5,56.06-57.85,2.42,25.76-1.43,84.34,11.74,111.24,19.54,35.7,35.43-19.84,61.93-10.32-4.87,3-14,8.12-19.53,13.51-7.67,6.44-11.08,7.15-18.79,17.9-13.17,27.94-22,53.21-24.84,85.62"/><path id="LowerTree" class="cls-7" d="M699.58,584.18c.7,29.74-22.74,49.51-46.27,72.48.75.75,6.21-5.28,14.36-9.9,35.87-20.07,53.07-5.52,57.13,28.12-.68-12.19-1.61-65.3,28.61-62.08,4.44,0,15.71,6.07,21.19,8.31,3,2.15,25.28,5.12,25.35,3.17.07-.59-4.21-1-11.59-3.76-25.52-10.82-35.64-13.36-47.92-40.79"/></g><g id="Leafs"><path class="cls-8" d="M630.37,91.19h0c-12.8,46.21,15.69,89.83,59.18,104.92,15.09-49.4-11.94-89.91-59.18-104.92"/><path class="cls-9" d="M707.3,117.33c36.82-33.62,35.33-83.94,1-117.33C673.54,32.54,676,86.91,707.3,117.33Z"/><path class="cls-10" d="M710.83,169.71c60-4.47,91.78-53.1,88.16-109.36C742.8,57.81,703.87,120.94,710.83,169.71Z"/><path class="cls-11" d="M729.14,226.83c49.82,1.87,84.06-35,83-82.94C765.84,137.53,727.21,186.58,729.14,226.83Z"/><path class="cls-12" d="M785.89,218.4c23.05,29.31,63.06,28.37,89,4.82C852.44,196.77,809,196.56,785.89,218.4Z"/><path class="cls-13" d="M545.81,138.8C583.23,123,613.8,137,631.06,167c-27.79,14.73-73.18,8.15-85.25-28.22"/><path class="cls-14" d="M672.73,99.32c6.45-27.48,1.89-47.79-21.83-63.53-8.91-7-14.78-9.45-16.63-9.28-1.45.13-1.41,2.9-2.31,7.46C626.93,72.83,647.58,87,672.73,99.32Z"/><path class="cls-15" d="M755.19,336.24c22.92-29.62,23.34-51.06,2.6-82.35C725.31,277.88,728.27,309.74,755.19,336.24Z"/><path class="cls-16" d="M777.1,221.36c37.47,12.78,64.68,53.74,49,91.93C786.15,303.84,762.64,256.63,777.1,221.36Z"/><path class="cls-17" d="M579.42,220l-.66-.3c8.53-26.14,32.32-39,55.54-31-7.35,25.88-32.71,40-55.1,31.19"/><path class="cls-18" d="M645.66,662.53c-19,17.17-42.31,19.05-65.16,17.92-12.46-.49-20.58-.85-21-3.17,20.24-23.17,60.82-20.61,86.54-15.24Z"/><path class="cls-19" d="M817.27,718.44c5-41.09-49.82-57.67-88.21-58.66-3.89,43,50.21,56,88.21,59Z"/><path class="cls-20" d="M726.38,687.85c13.54,3.67,39.08,26.45,16.49,48.49C735.5,744.75,731.73,749,727.2,749c-35.92-13.33-34-44.11-2-61.34Z"/><path class="cls-21" d="M650.71,734.8c21.72-1.19,50-13.81,44.26-37.47C679.82,687.78,645.73,714.16,650.71,734.8Z"/><path class="cls-22" d="M595.94,633.64c14.84-2.52,37.22-1.73,51,9.5,4.64,4.45,9.89,9.74-.63,9C627.94,652.23,606.2,651.57,595.94,633.64Z"/><path class="cls-23" d="M649.75,702.85C633,668.28,681.26,651,705.89,646.56c7.27-1,7.89,13.87,5.1,23.17C705.25,686.2,671.3,699.75,649.75,702.85Z"/><path class="cls-24" d="M747.17,630.07c29.73-.86,76.11,4.63,83.32,44.36-.28,1.53-1.66.91-3.23,1C795.66,674.51,749.76,666.53,747.17,630.07Z"/><path class="cls-25" d="M803.54,635.94c30.24-15.06,59.67-14,89.62-2.16C875.09,651.64,821.36,647.48,803.54,635.94Z"/><path class="cls-26" d="M844.4,585.47c-24.18,1.7-68.29,20.86-48.81,48.12C822.25,630.42,861.27,613.34,844.4,585.47Z"/><path class="cls-27" d="M777.42,574.62c7.77,2.61,15.6,16.41,12.49,26.16-.48,1.43-.88,1.89-5.61,8-5.45,7-5.71,7.42-6.69,7.75-1.16.39-3.45.73-14.59-7.16-10.52-7.45-11.31-9.76-11.51-11.35-.43-3.29,1.3-6.11,3.12-9.06,1.91-3.11,3.93-3.35,8.29-8.42C766.69,575.35,770.94,573.4,777.42,574.62Z"/></g><g id="Arches-TextBG"><path id="WhiteTextBG" class="cls-4" d="M963.19,471.34c0-21.95-18.73-42.5-51.34-60.1l.84.59c-11.32-4.07-62.16-22.79-85.09-25.54-154.41-30.46-306.36-34.86-466-27.48-105.45,5.47-209.79,18.73-303.08,48C21.2,424.67,0,445.21,0,467.06,0,484.81,14,501.7,39.26,517c.55-1.25,26.5,7.8,32.27,10.39C98,536.64,111.61,542.78,136,549.23c34.89,10.38,83.2,19,119.75,23.91,176.06,23,346.35,21.66,522.57-3.26,32.94-5.65,69.49-11.25,98.54-23,12.2-4.75,17.71-7.14,17.78-7C937.8,520.56,963.19,496.9,963.19,471.34Z"/><path id="UpperArch" class="cls-28" d="M827.6,386.29c22.93,2.75,73.77,21.47,85.09,25.54l-.84-.59c-18-12.52-33.82-19.24-76.75-32.08-186.46-54.44-604.94-60.47-778.82,28.29l2.2-.68c93.29-29.23,197.63-42.49,303.08-48C521.24,351.43,673.19,355.83,827.6,386.29Z"/><path id="LowerArch" class="cls-28" d="M778.36,569.88c-176.22,24.92-346.51,26.21-522.57,3.26-36.55-4.94-84.86-13.53-119.75-23.91-24.43-6.45-38-12.59-64.51-21.83-5.77-2.59-31.72-11.64-32.27-10.39h0C199,615.15,632.49,610.47,820.89,565.17c45.78-11,54.62-13.41,73.8-25.3h0c-.07-.1-5.58,2.29-17.78,7C847.85,558.63,811.3,564.23,778.36,569.88Z"/></g><g id="Text"><g id="LakeHendonEstate"><path class="cls-29" d="M92,484.93c0,1.18,0,2.18-.12,3a10.08,10.08,0,0,1-.35,2,2.67,2.67,0,0,1-.59,1.15,1.11,1.11,0,0,1-.82.36H62.2a3.44,3.44,0,0,1-2.61-1.15,5.52,5.52,0,0,1-1.06-3.76V417a2,2,0,0,1,.31-1.06,2.11,2.11,0,0,1,1-.77,8.16,8.16,0,0,1,1.91-.47,25,25,0,0,1,6,0,8,8,0,0,1,1.88.47,2.11,2.11,0,0,1,1,.77A1.88,1.88,0,0,1,71,417v61.6H90.09a1.16,1.16,0,0,1,.82.33A2.38,2.38,0,0,1,91.5,480a8.93,8.93,0,0,1,.35,1.95C91.93,482.75,92,483.75,92,484.93Z"/><path class="cls-29" d="M149.9,486.44a18,18,0,0,1,.7,2.9,1.85,1.85,0,0,1-.37,1.6,3,3,0,0,1-1.82.66c-.87.08-2.07.12-3.59.12s-2.82,0-3.71-.07a8,8,0,0,1-2-.31,1.82,1.82,0,0,1-1-.63,3.69,3.69,0,0,1-.47-1.07l-4-13.21H110.9l-3.82,12.86a4.53,4.53,0,0,1-.49,1.19,2,2,0,0,1-1,.76,6.58,6.58,0,0,1-1.91.38c-.83.07-1.91.1-3.24.1a28.79,28.79,0,0,1-3.36-.15,2.45,2.45,0,0,1-1.68-.73,2.15,2.15,0,0,1-.33-1.66,17.86,17.86,0,0,1,.7-2.84L114.4,428a5.38,5.38,0,0,1,.66-1.4,2.18,2.18,0,0,1,1.19-.81,8.37,8.37,0,0,1,2.26-.36c1-.05,2.24-.07,3.82-.07,1.84,0,3.3,0,4.39.07a10.5,10.5,0,0,1,2.54.36,2.34,2.34,0,0,1,1.31.84,5,5,0,0,1,.67,1.52Zm-27.71-48.21h0l-8.54,27.94h17.12Z"/><path class="cls-29" d="M202,489.44a1.92,1.92,0,0,1-.25,1,1.88,1.88,0,0,1-1,.71,8.44,8.44,0,0,1-2,.43,27.55,27.55,0,0,1-3.17.15,26.17,26.17,0,0,1-4.36-.25,4.09,4.09,0,0,1-1.91-.76,3.65,3.65,0,0,1-.91-1.22L170.14,458.3v31.19a1.7,1.7,0,0,1-.28,1,2.06,2.06,0,0,1-1,.69,7.74,7.74,0,0,1-1.87.43,24.17,24.17,0,0,1-3,.15,24.45,24.45,0,0,1-3-.15,7.61,7.61,0,0,1-1.88-.43,2.22,2.22,0,0,1-1-.69,1.57,1.57,0,0,1-.3-1V427.56a1.57,1.57,0,0,1,.3-1,2.06,2.06,0,0,1,1-.67,9.55,9.55,0,0,1,1.88-.4,24.45,24.45,0,0,1,3-.15,24.17,24.17,0,0,1,3,.15,9.76,9.76,0,0,1,1.87.4,1.91,1.91,0,0,1,1,.67,1.7,1.7,0,0,1,.28,1v28l17.68-27.94a3.78,3.78,0,0,1,.79-1.09,3.37,3.37,0,0,1,1.21-.69,8.49,8.49,0,0,1,1.92-.35c.77-.07,1.77-.1,3-.1a25.87,25.87,0,0,1,3.08.15,8.3,8.3,0,0,1,1.94.43,2.15,2.15,0,0,1,1,.69,1.53,1.53,0,0,1,.28.91,4.24,4.24,0,0,1-.42,1.78c-.28.61-.81,1.57-1.59,2.89l-16.56,23.63,18.06,29.72a24.55,24.55,0,0,1,1.23,2.77A3.92,3.92,0,0,1,202,489.44Z"/><path class="cls-29" d="M245.42,486.19a21,21,0,0,1-.12,2.46,6.75,6.75,0,0,1-.35,1.6,2,2,0,0,1-.58.89,1.18,1.18,0,0,1-.77.28H213.28a3.63,3.63,0,0,1-2.59-1,4.28,4.28,0,0,1-1.05-3.23V429.9a4.28,4.28,0,0,1,1.05-3.23,3.63,3.63,0,0,1,2.59-1h30.13a1.25,1.25,0,0,1,.75.25,2,2,0,0,1,.56.89,7.89,7.89,0,0,1,.35,1.63,21.57,21.57,0,0,1,.12,2.51,20.62,20.62,0,0,1-.12,2.42,7.28,7.28,0,0,1-.35,1.6,2.27,2.27,0,0,1-.56.89,1.16,1.16,0,0,1-.75.28H221.86V452.2H240.1a1.18,1.18,0,0,1,.77.28,2,2,0,0,1,.58.86,5.92,5.92,0,0,1,.35,1.58,24.56,24.56,0,0,1,0,4.85,5.85,5.85,0,0,1-.35,1.55,1.84,1.84,0,0,1-.58.84,1.27,1.27,0,0,1-.77.25H221.86V481H243.6a1.24,1.24,0,0,1,.77.28,2.09,2.09,0,0,1,.58.89,6.75,6.75,0,0,1,.35,1.6A21.06,21.06,0,0,1,245.42,486.19Z"/><path class="cls-29" d="M324.14,489.24a1.89,1.89,0,0,1-.31,1.07,2.1,2.1,0,0,1-1,.76,8.07,8.07,0,0,1-1.88.48,20.26,20.26,0,0,1-3,.17,21.22,21.22,0,0,1-3-.17,7.78,7.78,0,0,1-1.89-.48,2.1,2.1,0,0,1-1-.76,1.89,1.89,0,0,1-.31-1.07V458.32H289v30.92a2,2,0,0,1-.28,1.07,2,2,0,0,1-1,.76,8.07,8.07,0,0,1-1.88.48,26.56,26.56,0,0,1-6,0,8,8,0,0,1-1.9-.48,2.1,2.1,0,0,1-1-.76,1.89,1.89,0,0,1-.31-1.07V417a1.86,1.86,0,0,1,.31-1.06,2.11,2.11,0,0,1,1-.77,7.6,7.6,0,0,1,1.9-.47,25.09,25.09,0,0,1,6,0,7.64,7.64,0,0,1,1.88.47A1.84,1.84,0,0,1,289,417v28.08h22.76V417a1.86,1.86,0,0,1,.31-1.06,2.12,2.12,0,0,1,1-.77,7.39,7.39,0,0,1,1.89-.47,21,21,0,0,1,3-.18,20.08,20.08,0,0,1,3,.18,7.64,7.64,0,0,1,1.88.47,2.11,2.11,0,0,1,1,.77,1.86,1.86,0,0,1,.31,1.06Z"/><path class="cls-29" d="M372.46,486.19a21,21,0,0,1-.12,2.46,6.75,6.75,0,0,1-.35,1.6,2,2,0,0,1-.58.89,1.2,1.2,0,0,1-.77.28H340.32a3.63,3.63,0,0,1-2.59-1,4.28,4.28,0,0,1-1.05-3.23V429.9a4.28,4.28,0,0,1,1.05-3.23,3.63,3.63,0,0,1,2.59-1h30.13a1.25,1.25,0,0,1,.75.25,2,2,0,0,1,.56.89,7.89,7.89,0,0,1,.35,1.63,21.87,21.87,0,0,1,.11,2.51,20.87,20.87,0,0,1-.11,2.42,7.28,7.28,0,0,1-.35,1.6,2.27,2.27,0,0,1-.56.89,1.16,1.16,0,0,1-.75.28H348.9V452.2h18.24a1.18,1.18,0,0,1,.77.28,2,2,0,0,1,.58.86,6.34,6.34,0,0,1,.35,1.58,24.56,24.56,0,0,1,0,4.85,6.28,6.28,0,0,1-.35,1.55,1.84,1.84,0,0,1-.58.84,1.27,1.27,0,0,1-.77.25H348.9V481h21.74a1.26,1.26,0,0,1,.77.28,2.09,2.09,0,0,1,.58.89,6.75,6.75,0,0,1,.35,1.6A21.06,21.06,0,0,1,372.46,486.19Z"/><path class="cls-29" d="M432.58,486.75a5.43,5.43,0,0,1-.38,2.08,4.2,4.2,0,0,1-1,1.52,3.71,3.71,0,0,1-1.49.89,5.57,5.57,0,0,1-1.75.28h-5.23a10.25,10.25,0,0,1-2.82-.35,5.52,5.52,0,0,1-2.19-1.3,11.38,11.38,0,0,1-1.94-2.54q-.93-1.6-2.1-4.14l-15-30.74c-.87-1.83-1.75-3.8-2.66-5.91s-1.71-4.18-2.42-6.18h-.09q.18,3.66.28,7.29t.09,7.5v34.39a1.67,1.67,0,0,1-.26.91,1.88,1.88,0,0,1-.88.69,6.41,6.41,0,0,1-1.71.43,20.47,20.47,0,0,1-2.75.15,20,20,0,0,1-2.7-.15,6,6,0,0,1-1.68-.43,1.71,1.71,0,0,1-.84-.69,1.74,1.74,0,0,1-.24-.91V430.46a4.66,4.66,0,0,1,1.29-3.59,4.45,4.45,0,0,1,3.14-1.19h6.58a11.6,11.6,0,0,1,3,.33A6.08,6.08,0,0,1,399,427.1a8.37,8.37,0,0,1,1.79,2.11,28,28,0,0,1,1.73,3.33l11.75,24c.69,1.46,1.36,2.89,2,4.29s1.32,2.81,1.94,4.22,1.23,2.78,1.82,4.14,1.17,2.71,1.72,4.06h.05q-.14-3.55-.21-7.41c0-2.58-.07-5-.07-7.37V427.66a1.53,1.53,0,0,1,.28-.91,2.29,2.29,0,0,1,.93-.71,5.71,5.71,0,0,1,1.73-.44,25.66,25.66,0,0,1,2.75-.12,24.48,24.48,0,0,1,2.66.12,4.86,4.86,0,0,1,1.66.44,1.86,1.86,0,0,1,.81.71,1.74,1.74,0,0,1,.24.91Z"/><path class="cls-29" d="M495.4,457.58a48.5,48.5,0,0,1-2.17,15.47,26.58,26.58,0,0,1-6.22,10.5,24.63,24.63,0,0,1-9.87,6,44.55,44.55,0,0,1-13.83,1.91H448.89a3.64,3.64,0,0,1-2.59-1,4.28,4.28,0,0,1-1.05-3.23V429.9a4.28,4.28,0,0,1,1.05-3.23,3.64,3.64,0,0,1,2.59-1h15.49a40.07,40.07,0,0,1,13.69,2.06,24.41,24.41,0,0,1,9.47,6.09,26.54,26.54,0,0,1,5.86,10A43.22,43.22,0,0,1,495.4,457.58Zm-12.69.46a35.79,35.79,0,0,0-1-8.69,19.23,19.23,0,0,0-3.22-7,15.11,15.11,0,0,0-5.69-4.59,21.43,21.43,0,0,0-9.12-1.65h-6.2v44.7h6.39a22.29,22.29,0,0,0,8.49-1.42,14.28,14.28,0,0,0,5.76-4.29,19.18,19.18,0,0,0,3.45-7.14A38.82,38.82,0,0,0,482.71,458Z"/><path class="cls-29" d="M559.3,457.79a52.46,52.46,0,0,1-1.87,14.63,30.25,30.25,0,0,1-5.55,10.95,24,24,0,0,1-9.12,6.86,31.35,31.35,0,0,1-12.57,2.36,34.31,34.31,0,0,1-12.29-2,21.31,21.31,0,0,1-8.75-6.12A26.85,26.85,0,0,1,503.91,474a56.82,56.82,0,0,1-1.75-15A51.32,51.32,0,0,1,504,444.6a30.29,30.29,0,0,1,5.55-10.84,24.35,24.35,0,0,1,9.12-6.86,31.19,31.19,0,0,1,12.62-2.39,34.21,34.21,0,0,1,12.11,2,21.21,21.21,0,0,1,8.77,6.1A27.43,27.43,0,0,1,557.51,443,54.45,54.45,0,0,1,559.3,457.79Zm-12.87.71a54.18,54.18,0,0,0-.75-9.42,21.64,21.64,0,0,0-2.54-7.27,12.6,12.6,0,0,0-4.78-4.67,15.29,15.29,0,0,0-7.47-1.65,14.24,14.24,0,0,0-7.56,1.85,14.48,14.48,0,0,0-4.89,5,21.39,21.39,0,0,0-2.64,7.24,48.19,48.19,0,0,0-.77,8.77,56.45,56.45,0,0,0,.75,9.67,21.72,21.72,0,0,0,2.52,7.35,11.9,11.9,0,0,0,4.75,4.64,15.77,15.77,0,0,0,7.52,1.6,14.39,14.39,0,0,0,7.55-1.83,14,14,0,0,0,4.9-5,22.4,22.4,0,0,0,2.64-7.34A49.71,49.71,0,0,0,546.43,458.5Z"/><path class="cls-29" d="M618.91,486.75a5.43,5.43,0,0,1-.38,2.08,4.2,4.2,0,0,1-1,1.52,3.71,3.71,0,0,1-1.49.89,5.57,5.57,0,0,1-1.75.28h-5.23a10.25,10.25,0,0,1-2.82-.35,5.52,5.52,0,0,1-2.19-1.3,11.38,11.38,0,0,1-1.94-2.54q-.93-1.6-2.09-4.14l-15-30.74c-.87-1.83-1.75-3.8-2.66-5.91s-1.71-4.18-2.42-6.18h-.09q.18,3.66.28,7.29t.09,7.5v34.39a1.67,1.67,0,0,1-.26.91,1.88,1.88,0,0,1-.88.69,6.41,6.41,0,0,1-1.71.43,20.47,20.47,0,0,1-2.75.15,20,20,0,0,1-2.7-.15,6,6,0,0,1-1.68-.43,1.71,1.71,0,0,1-.84-.69,1.74,1.74,0,0,1-.24-.91V430.46a4.66,4.66,0,0,1,1.29-3.59,4.46,4.46,0,0,1,3.15-1.19h6.57a11.6,11.6,0,0,1,3,.33,6.08,6.08,0,0,1,2.17,1.09,8.37,8.37,0,0,1,1.79,2.11,28,28,0,0,1,1.73,3.33l11.76,24c.68,1.46,1.36,2.89,2,4.29s1.32,2.81,1.94,4.22,1.23,2.78,1.82,4.14,1.17,2.71,1.73,4.06h0q-.14-3.55-.21-7.41c0-2.58-.07-5-.07-7.37V427.66a1.6,1.6,0,0,1,.28-.91,2.29,2.29,0,0,1,.93-.71,5.79,5.79,0,0,1,1.73-.44,25.66,25.66,0,0,1,2.75-.12,24.48,24.48,0,0,1,2.66.12,4.86,4.86,0,0,1,1.66.44,1.86,1.86,0,0,1,.81.71,1.74,1.74,0,0,1,.24.91Z"/><path class="cls-29" d="M691.59,485.32a28.67,28.67,0,0,1-.12,2.88,8.85,8.85,0,0,1-.36,1.87,2.35,2.35,0,0,1-.58,1,1.13,1.13,0,0,1-.78.33H659.18a3.42,3.42,0,0,1-2.61-1.16,5.53,5.53,0,0,1-1.06-3.77V419.45a5.53,5.53,0,0,1,1.06-3.77,3.42,3.42,0,0,1,2.61-1.16h30.38a1.11,1.11,0,0,1,.76.3,2.48,2.48,0,0,1,.56,1,9.54,9.54,0,0,1,.35,1.9,29.42,29.42,0,0,1,.12,2.94,28.28,28.28,0,0,1-.12,2.83,9.06,9.06,0,0,1-.35,1.87,2.85,2.85,0,0,1-.56,1,1,1,0,0,1-.76.32H667.84v18.79h18.38a1.12,1.12,0,0,1,.78.33,2.45,2.45,0,0,1,.59,1,9,9,0,0,1,.35,1.84,33.67,33.67,0,0,1,0,5.68,9.06,9.06,0,0,1-.35,1.81,2.25,2.25,0,0,1-.59,1,1.18,1.18,0,0,1-.78.3H667.84v21.69h21.91a1.13,1.13,0,0,1,.78.33,2.47,2.47,0,0,1,.58,1,9,9,0,0,1,.36,1.87C691.55,483.21,691.59,484.17,691.59,485.32Z"/><path class="cls-29" d="M733.68,471.71a21.87,21.87,0,0,1-1.77,9.09,18.73,18.73,0,0,1-4.81,6.53,20.38,20.38,0,0,1-7.09,3.94,27.92,27.92,0,0,1-8.68,1.32,28.54,28.54,0,0,1-5.8-.56,30.07,30.07,0,0,1-4.74-1.35,19.32,19.32,0,0,1-3.43-1.65,9.56,9.56,0,0,1-2-1.52,3.9,3.9,0,0,1-.86-1.91,18.11,18.11,0,0,1-.26-3.58q0-1.57.09-2.64a8.08,8.08,0,0,1,.31-1.73,1.88,1.88,0,0,1,.56-.94,1.28,1.28,0,0,1,.81-.28,3.66,3.66,0,0,1,1.84.84,33.66,33.66,0,0,0,3.06,1.86,26.8,26.8,0,0,0,4.46,1.85,19.38,19.38,0,0,0,6,.84,12.76,12.76,0,0,0,4-.59,8.73,8.73,0,0,0,3-1.65,7,7,0,0,0,1.89-2.64,9.17,9.17,0,0,0,.65-3.5,6.52,6.52,0,0,0-1.12-3.84,11.45,11.45,0,0,0-2.91-2.85,31.07,31.07,0,0,0-4.08-2.33q-2.3-1.1-4.72-2.31a45,45,0,0,1-4.71-2.77,19.92,19.92,0,0,1-4.08-3.71,17.52,17.52,0,0,1-2.91-5.11,19.81,19.81,0,0,1-1.12-7.06,20.08,20.08,0,0,1,1.6-8.3,17,17,0,0,1,4.34-6,18.07,18.07,0,0,1,6.44-3.53,26.54,26.54,0,0,1,12.15-.81,28.86,28.86,0,0,1,4,1,22.94,22.94,0,0,1,3.31,1.37,7.69,7.69,0,0,1,1.91,1.28,3.46,3.46,0,0,1,.63.86,4.45,4.45,0,0,1,.28.94,10.13,10.13,0,0,1,.16,1.47c0,.59,0,1.33,0,2.21s0,1.81-.07,2.49a11.57,11.57,0,0,1-.23,1.68,2,2,0,0,1-.47,1,1.07,1.07,0,0,1-.82.31,3.78,3.78,0,0,1-1.63-.71c-.75-.48-1.66-1-2.75-1.55a25.14,25.14,0,0,0-3.78-1.53,15.63,15.63,0,0,0-4.71-.68,10.27,10.27,0,0,0-3.5.53,7.23,7.23,0,0,0-2.5,1.47,5.87,5.87,0,0,0-1.49,2.26,8,8,0,0,0-.49,2.8,6.5,6.5,0,0,0,1.1,3.78,10.83,10.83,0,0,0,2.94,2.85A29.6,29.6,0,0,0,716,451c1.56.73,3.14,1.5,4.76,2.32a44.19,44.19,0,0,1,4.76,2.77,19.46,19.46,0,0,1,4.15,3.7,17.82,17.82,0,0,1,2.94,5.08A19.4,19.4,0,0,1,733.68,471.71Z"/><path class="cls-29" d="M781.81,431.17a22.3,22.3,0,0,1-.12,2.51,7.18,7.18,0,0,1-.35,1.68,2.23,2.23,0,0,1-.58.94,1.15,1.15,0,0,1-.77.3H764.88v53a1.49,1.49,0,0,1-.31.91,2,2,0,0,1-1,.67,9.13,9.13,0,0,1-1.89.4,29.28,29.28,0,0,1-5.92,0,8.85,8.85,0,0,1-1.89-.4,2.06,2.06,0,0,1-1-.67,1.48,1.48,0,0,1-.3-.91v-53H737.45a1.14,1.14,0,0,1-.8-.3,2.43,2.43,0,0,1-.56-.94,7.74,7.74,0,0,1-.35-1.68,22.57,22.57,0,0,1-.11-2.51,23.89,23.89,0,0,1,.11-2.59,8.06,8.06,0,0,1,.35-1.71,2.22,2.22,0,0,1,.56-.91,1.17,1.17,0,0,1,.8-.28H780a1.18,1.18,0,0,1,.77.28,2,2,0,0,1,.58.91,7.48,7.48,0,0,1,.35,1.71A23.6,23.6,0,0,1,781.81,431.17Z"/><path class="cls-29" d="M830.41,486.44a20.39,20.39,0,0,1,.7,2.9,1.85,1.85,0,0,1-.38,1.6,3,3,0,0,1-1.82.66c-.87.08-2.07.12-3.59.12s-2.82,0-3.71-.07a8.11,8.11,0,0,1-2-.31,1.86,1.86,0,0,1-1-.63,3.69,3.69,0,0,1-.46-1.07l-4.06-13.21H791.41l-3.83,12.86a4.22,4.22,0,0,1-.49,1.19,2,2,0,0,1-1,.76,6.58,6.58,0,0,1-1.91.38c-.82.07-1.9.1-3.24.1a29,29,0,0,1-3.36-.15,2.45,2.45,0,0,1-1.68-.73,2.15,2.15,0,0,1-.33-1.66,19,19,0,0,1,.7-2.84L794.91,428a5.08,5.08,0,0,1,.65-1.4,2.22,2.22,0,0,1,1.19-.81,8.44,8.44,0,0,1,2.26-.36c1-.05,2.24-.07,3.83-.07,1.83,0,3.29,0,4.38.07a10.42,10.42,0,0,1,2.54.36,2.31,2.31,0,0,1,1.31.84,5.29,5.29,0,0,1,.68,1.52ZM802.7,438.23h-.05l-8.54,27.94h17.12Z"/><path class="cls-29" d="M871.07,431.17c0,1,0,1.82-.11,2.51a7.74,7.74,0,0,1-.35,1.68,2.24,2.24,0,0,1-.59.94,1.15,1.15,0,0,1-.77.3H854.14v53a1.48,1.48,0,0,1-.3.91,2.11,2.11,0,0,1-1,.67,8.85,8.85,0,0,1-1.89.4,29.28,29.28,0,0,1-5.92,0,9.13,9.13,0,0,1-1.89-.4,2,2,0,0,1-1-.67,1.43,1.43,0,0,1-.31-.91v-53H826.71a1.11,1.11,0,0,1-.79-.3,2.32,2.32,0,0,1-.56-.94,6.7,6.7,0,0,1-.35-1.68,22.3,22.3,0,0,1-.12-2.51,23.6,23.6,0,0,1,.12-2.59,7,7,0,0,1,.35-1.71,2.12,2.12,0,0,1,.56-.91,1.14,1.14,0,0,1,.79-.28h42.54a1.18,1.18,0,0,1,.77.28,2.05,2.05,0,0,1,.59.91,8.06,8.06,0,0,1,.35,1.71C871,429.29,871.07,430.15,871.07,431.17Z"/><path class="cls-29" d="M913.51,486.19a23.79,23.79,0,0,1-.11,2.46,7.28,7.28,0,0,1-.35,1.6,2,2,0,0,1-.59.89,1.18,1.18,0,0,1-.77.28H881.37a3.64,3.64,0,0,1-2.59-1,4.28,4.28,0,0,1-1-3.23V429.9a4.28,4.28,0,0,1,1-3.23,3.64,3.64,0,0,1,2.59-1h30.14a1.2,1.2,0,0,1,.74.25,1.92,1.92,0,0,1,.56.89,6.77,6.77,0,0,1,.35,1.63,21.57,21.57,0,0,1,.12,2.51,20.62,20.62,0,0,1-.12,2.42,6.29,6.29,0,0,1-.35,1.6,2.17,2.17,0,0,1-.56.89,1.12,1.12,0,0,1-.74.28H890V452.2H908.2a1.15,1.15,0,0,1,.76.28,2,2,0,0,1,.59.86,6.82,6.82,0,0,1,.35,1.58,26.78,26.78,0,0,1,0,4.85,6.77,6.77,0,0,1-.35,1.55,1.85,1.85,0,0,1-.59.84,1.24,1.24,0,0,1-.76.25H890V481h21.73a1.24,1.24,0,0,1,.77.28,2.1,2.1,0,0,1,.59.89,7.28,7.28,0,0,1,.35,1.6A23.86,23.86,0,0,1,913.51,486.19Z"/></g><text class="cls-30" transform="translate(266.49 556.47) scale(1.13 1)">ASSISTED LIVING</text></g></svg>